<svg xmlns="http://www.w3.org/2000/svg" xmlns:xlink="http://www.w3.org/1999/xlink" width="500" zoomAndPan="magnify" viewBox="0 0 375 374.999991" height="500" preserveAspectRatio="xMidYMid meet" version="1.0"><defs><clipPath id="c4dda41410"><path d="M 112.5 112.773438 L 262.5 112.773438 L 262.5 262.023438 L 112.5 262.023438 Z M 112.5 112.773438 " clip-rule="nonzero"/></clipPath></defs><g clip-path="url(#c4dda41410)"><path fill="#f3721a" d="M 262.515625 187.78125 C 262.515625 146.351562 228.933594 112.773438 187.511719 112.773438 C 146.089844 112.773438 112.507812 146.351562 112.507812 187.78125 C 112.507812 222.953125 136.722656 252.472656 169.390625 260.578125 L 169.390625 210.703125 L 153.921875 210.703125 L 153.921875 187.78125 L 169.390625 187.78125 L 169.390625 177.90625 C 169.390625 152.375 180.941406 140.542969 206.007812 140.542969 C 210.757812 140.542969 218.957031 141.472656 222.3125 142.40625 L 222.3125 163.179688 C 220.539062 162.992188 217.464844 162.898438 213.648438 162.898438 C 201.347656 162.898438 196.59375 167.558594 196.59375 179.667969 L 196.59375 187.773438 L 221.09375 187.773438 L 216.886719 210.695312 L 196.59375 210.695312 L 196.59375 262.230469 C 233.734375 257.746094 262.515625 226.117188 262.515625 187.773438 Z M 262.515625 187.78125 " fill-opacity="1" fill-rule="nonzero"/></g></svg>