<svg xmlns="http://www.w3.org/2000/svg" xmlns:xlink="http://www.w3.org/1999/xlink" width="500" zoomAndPan="magnify" viewBox="0 0 375 374.999991" height="500" preserveAspectRatio="xMidYMid meet" version="1.0"><defs><clipPath id="c159c141ce"><path d="M 112.5 112.5 L 262.5 112.5 L 262.5 262.5 L 112.5 262.5 Z M 112.5 112.5 " clip-rule="nonzero"/></clipPath></defs><rect x="-37.5" width="450" fill="#ffffff" y="-37.499999" height="449.999989" fill-opacity="1"/><rect x="-37.5" width="450" fill="#000000" y="-37.499999" height="449.999989" fill-opacity="1"/><g clip-path="url(#c159c141ce)"><path fill="#f3721a" d="M 156.417969 113.015625 C 148.441406 113.390625 142.996094 114.667969 138.234375 116.535156 C 133.300781 118.457031 129.125 121.027344 124.96875 125.203125 C 120.808594 129.378906 118.25 133.5625 116.351562 138.5 C 114.507812 143.277344 113.257812 148.726562 112.902344 156.707031 C 112.550781 164.699219 112.472656 167.25 112.507812 187.613281 C 112.542969 207.96875 112.632812 210.527344 113.015625 218.523438 C 113.398438 226.5 114.667969 231.941406 116.535156 236.710938 C 118.457031 241.644531 121.027344 245.8125 125.203125 249.972656 C 129.378906 254.132812 133.5625 256.683594 138.5 258.59375 C 143.269531 260.4375 148.726562 261.695312 156.703125 262.039062 C 164.699219 262.394531 167.25 262.472656 187.605469 262.429688 C 207.96875 262.394531 210.519531 262.300781 218.515625 261.921875 C 226.496094 261.539062 231.933594 260.261719 236.703125 258.402344 C 241.636719 256.472656 245.8125 253.910156 249.964844 249.734375 C 254.121094 245.558594 256.679688 241.375 258.585938 236.433594 C 260.429688 231.667969 261.6875 226.210938 262.035156 218.242188 C 262.378906 210.242188 262.464844 207.6875 262.429688 187.332031 C 262.394531 166.976562 262.296875 164.425781 261.921875 156.425781 C 261.539062 148.441406 260.265625 143 258.402344 138.234375 C 256.472656 133.300781 253.910156 129.132812 249.734375 124.96875 C 245.558594 120.816406 241.375 118.25 236.433594 116.351562 C 231.667969 114.507812 226.210938 113.25 218.234375 112.902344 C 210.238281 112.550781 207.679688 112.472656 187.324219 112.507812 C 166.96875 112.542969 164.417969 112.632812 156.417969 113.015625 M 157.296875 248.539062 C 149.988281 248.21875 146.019531 247.003906 143.367188 245.988281 C 139.863281 244.632812 137.371094 243.007812 134.734375 240.398438 C 132.105469 237.777344 130.480469 235.285156 129.109375 231.792969 C 128.085938 229.152344 126.851562 225.1875 126.503906 217.875 C 126.128906 209.976562 126.042969 207.601562 126.007812 187.585938 C 125.972656 167.574219 126.042969 165.203125 126.390625 157.296875 C 126.703125 149.988281 127.925781 146.019531 128.941406 143.375 C 130.296875 139.871094 131.914062 137.378906 134.53125 134.742188 C 137.152344 132.113281 139.644531 130.488281 143.144531 129.117188 C 145.785156 128.085938 149.75 126.855469 157.054688 126.511719 C 164.960938 126.136719 167.328125 126.058594 187.34375 126.015625 C 207.359375 125.972656 209.734375 126.042969 217.640625 126.398438 C 224.945312 126.714844 228.917969 127.925781 231.558594 128.949219 C 235.066406 130.304688 237.566406 131.914062 240.195312 134.539062 C 242.824219 137.160156 244.453125 139.644531 245.820312 143.148438 C 246.851562 145.785156 248.078125 149.757812 248.425781 157.054688 C 248.800781 164.960938 248.886719 167.335938 248.921875 187.34375 C 248.957031 207.359375 248.886719 209.734375 248.539062 217.632812 C 248.21875 224.941406 247.003906 228.917969 245.988281 231.558594 C 244.632812 235.058594 243.011719 237.558594 240.390625 240.1875 C 237.769531 242.808594 235.285156 244.441406 231.78125 245.8125 C 229.144531 246.84375 225.171875 248.074219 217.875 248.417969 C 209.96875 248.792969 207.601562 248.878906 187.578125 248.914062 C 167.566406 248.949219 165.195312 248.878906 157.289062 248.53125 M 218.410156 147.394531 C 218.417969 152.363281 222.460938 156.382812 227.417969 156.371094 C 232.386719 156.363281 236.40625 152.328125 236.398438 147.359375 C 236.394531 142.394531 232.351562 138.375 227.382812 138.378906 C 222.417969 138.386719 218.398438 142.429688 218.40625 147.390625 M 148.972656 187.542969 C 149.015625 208.800781 166.28125 226 187.535156 225.957031 C 208.796875 225.914062 226 208.652344 225.957031 187.394531 C 225.914062 166.140625 208.648438 148.9375 187.386719 148.972656 C 166.132812 149.015625 148.929688 166.28125 148.972656 187.542969 M 162.472656 187.515625 C 162.453125 173.714844 173.617188 162.503906 187.414062 162.480469 C 201.214844 162.453125 212.425781 173.617188 212.457031 187.421875 C 212.484375 201.222656 201.3125 212.433594 187.515625 212.457031 C 173.714844 212.484375 162.503906 201.3125 162.480469 187.515625 " fill-opacity="1" fill-rule="nonzero"/></g></svg>