<svg xmlns="http://www.w3.org/2000/svg" xmlns:xlink="http://www.w3.org/1999/xlink" width="500" zoomAndPan="magnify" viewBox="0 0 375 374.999991" height="500" preserveAspectRatio="xMidYMid meet" version="1.0"><defs><clipPath id="77c4251d5f"><path d="M 101.453125 114.125 L 247 114.125 L 247 260 L 101.453125 260 Z M 101.453125 114.125 " clip-rule="nonzero"/></clipPath><clipPath id="a38d0eaf85"><path d="M 253 240 L 273.203125 240 L 273.203125 261 L 253 261 Z M 253 240 " clip-rule="nonzero"/></clipPath></defs><path fill="#f3721a" d="M 265.042969 251.441406 C 266.53125 251.457031 267.753906 250.261719 267.765625 248.773438 C 267.765625 248.710938 267.765625 248.648438 267.765625 248.589844 C 267.765625 246.566406 266.546875 245.605469 264.050781 245.605469 L 260.007812 245.605469 L 260.007812 256.179688 L 261.53125 256.179688 L 261.53125 251.570312 L 263.398438 251.570312 L 263.4375 251.625 L 266.339844 256.179688 L 267.964844 256.179688 L 264.84375 251.46875 L 265.050781 251.441406 Z M 263.289062 250.378906 L 261.527344 250.378906 L 261.527344 246.804688 L 263.761719 246.804688 C 264.914062 246.804688 266.230469 246.996094 266.230469 248.507812 C 266.230469 250.242188 264.898438 250.386719 263.28125 250.386719 " fill-opacity="1" fill-rule="nonzero"/><g clip-path="url(#77c4251d5f)"><path fill="#f3721a" d="M 225.394531 238.183594 L 203.84375 238.183594 L 203.84375 204.429688 C 203.84375 196.386719 203.699219 186.019531 192.632812 186.019531 C 181.570312 186.019531 179.691406 194.792969 179.691406 203.847656 L 179.691406 238.183594 L 158.140625 238.183594 L 158.140625 168.769531 L 178.835938 168.769531 L 178.835938 178.257812 L 179.121094 178.257812 C 183.339844 171.042969 191.1875 166.734375 199.535156 167.042969 C 221.378906 167.042969 225.40625 181.414062 225.40625 200.101562 L 225.40625 238.183594 Z M 133.8125 159.285156 C 126.90625 159.285156 121.300781 153.6875 121.300781 146.78125 C 121.300781 139.875 126.898438 134.269531 133.804688 134.269531 C 140.710938 134.269531 146.316406 139.867188 146.316406 146.773438 C 146.316406 153.679688 140.71875 159.285156 133.8125 159.285156 M 144.59375 238.183594 L 123.015625 238.183594 L 123.015625 168.769531 L 144.59375 168.769531 Z M 236.140625 114.25 L 112.1875 114.25 C 106.328125 114.1875 101.519531 118.878906 101.453125 124.738281 L 101.453125 249.207031 C 101.519531 255.070312 106.324219 259.761719 112.1875 259.699219 L 236.140625 259.699219 C 242.011719 259.773438 246.832031 255.078125 246.917969 249.207031 L 246.917969 124.730469 C 246.832031 118.859375 242.011719 114.167969 236.140625 114.242188 " fill-opacity="1" fill-rule="nonzero"/></g><g clip-path="url(#a38d0eaf85)"><path fill="#f3721a" d="M 263.464844 240.890625 C 257.984375 240.949219 253.589844 245.425781 253.644531 250.90625 C 253.699219 256.386719 258.179688 260.785156 263.660156 260.726562 C 269.140625 260.671875 273.535156 256.195312 273.480469 250.714844 C 273.425781 245.308594 269.0625 240.941406 263.660156 240.890625 L 263.464844 240.890625 M 263.464844 259.597656 C 258.664062 259.679688 254.707031 255.84375 254.625 251.042969 C 254.542969 246.242188 258.378906 242.285156 263.179688 242.203125 C 267.980469 242.121094 271.9375 245.953125 272.019531 250.753906 L 272.019531 250.898438 C 272.121094 255.597656 268.390625 259.488281 263.691406 259.589844 L 263.464844 259.589844 " fill-opacity="1" fill-rule="nonzero"/></g></svg>