<svg xmlns="http://www.w3.org/2000/svg" xmlns:xlink="http://www.w3.org/1999/xlink" width="500" zoomAndPan="magnify" viewBox="0 0 375 374.999991" height="500" preserveAspectRatio="xMidYMid meet" version="1.0"><defs><clipPath id="78742dd192"><path d="M 112.910156 112.5 L 262.160156 112.5 L 262.160156 262.5 L 112.910156 262.5 Z M 112.910156 112.5 " clip-rule="nonzero"/></clipPath></defs><g clip-path="url(#78742dd192)"><path fill="#f3721a" d="M 240.339844 134.355469 C 226.316406 120.320312 207.671875 112.578125 187.804688 112.578125 C 146.867188 112.578125 113.546875 145.886719 113.53125 186.839844 C 113.53125 199.929688 116.949219 212.710938 123.449219 223.96875 L 112.910156 262.453125 L 152.28125 252.121094 C 163.132812 258.042969 175.34375 261.15625 187.773438 261.164062 L 187.804688 261.164062 C 228.734375 261.164062 262.058594 227.84375 262.066406 186.898438 C 262.066406 167.054688 254.359375 148.402344 240.332031 134.355469 Z M 187.804688 248.625 L 187.78125 248.625 C 176.707031 248.625 165.835938 245.644531 156.359375 240.019531 L 154.105469 238.679688 L 130.738281 244.808594 L 136.972656 222.027344 L 135.503906 219.691406 C 129.324219 209.867188 126.0625 198.503906 126.070312 186.839844 C 126.085938 152.808594 153.78125 125.117188 187.824219 125.117188 C 204.3125 125.117188 219.808594 131.546875 231.46875 143.21875 C 243.125 154.886719 249.535156 170.394531 249.527344 186.890625 C 249.511719 220.929688 221.820312 248.625 187.796875 248.625 Z M 221.664062 202.394531 C 219.808594 201.46875 210.6875 196.976562 208.984375 196.363281 C 207.277344 195.742188 206.046875 195.4375 204.8125 197.289062 C 203.574219 199.148438 200.015625 203.328125 198.933594 204.566406 C 197.851562 205.804688 196.769531 205.960938 194.910156 205.027344 C 193.058594 204.101562 187.078125 202.136719 179.984375 195.816406 C 174.472656 190.894531 170.742188 184.816406 169.660156 182.957031 C 168.578125 181.097656 169.550781 180.097656 170.476562 179.171875 C 171.304688 178.339844 172.328125 177 173.261719 175.917969 C 174.1875 174.835938 174.5 174.058594 175.117188 172.820312 C 175.738281 171.582031 175.425781 170.5 174.960938 169.566406 C 174.492188 168.640625 170.789062 159.5 169.238281 155.789062 C 167.734375 152.171875 166.199219 152.660156 165.066406 152.601562 C 163.984375 152.550781 162.746094 152.535156 161.507812 152.535156 C 160.273438 152.535156 158.261719 152.996094 156.558594 154.855469 C 154.855469 156.714844 150.066406 161.207031 150.066406 170.335938 C 150.066406 179.464844 156.714844 188.292969 157.648438 189.539062 C 158.574219 190.777344 170.734375 209.515625 189.351562 217.558594 C 193.777344 219.46875 197.238281 220.613281 199.933594 221.472656 C 204.378906 222.886719 208.425781 222.6875 211.621094 222.203125 C 215.1875 221.671875 222.597656 217.714844 224.144531 213.378906 C 225.695312 209.042969 225.695312 205.332031 225.226562 204.550781 C 224.761719 203.773438 223.523438 203.316406 221.671875 202.382812 Z M 221.664062 202.394531 " fill-opacity="1" fill-rule="evenodd"/></g></svg>